<?xml version="1.0" standalone="no"?>
<!DOCTYPE svg PUBLIC "-//W3C//DTD SVG 20010904//EN"
 "http://www.w3.org/TR/2001/REC-SVG-20010904/DTD/svg10.dtd">
<svg version="1.0" xmlns="http://www.w3.org/2000/svg"
 width="1444.000000pt" height="1981.000000pt" viewBox="0 0 1444.000000 1981.000000"
 preserveAspectRatio="xMidYMid meet">

<g transform="translate(0.000000,1981.000000) scale(0.100000,-0.100000)"
fill="#000000" stroke="none">
<path d="M8481 19792 c-21 -7 -5 -17 115 -71 370 -170 471 -218 619 -298 1256
-675 2114 -1606 2595 -2813 265 -666 425 -1477 456 -2310 5 -141 3 -190 -10
-250 -36 -171 -145 -317 -287 -385 -319 -151 -651 14 -744 370 -9 33 -22 155
-30 270 -30 438 -37 524 -56 668 -201 1525 -1066 2894 -2399 3799 -823 559
-1789 896 -2775 968 -181 13 -564 13 -736 0 -721 -56 -1405 -245 -2074 -575
-758 -373 -1410 -899 -1931 -1555 -662 -834 -1075 -1858 -1188 -2950 -97 -928
32 -1788 382 -2545 243 -526 584 -992 1078 -1475 321 -313 631 -563 999 -802
138 -90 764 -479 1705 -1060 1693 -1045 2412 -1488 2660 -1638 964 -584 1585
-980 1780 -1134 405 -321 620 -770 620 -1299 0 -624 -238 -1096 -748 -1485
l-92 -70 47 -10 c198 -42 230 -46 453 -46 228 -1 316 7 505 45 634 127 1179
493 1540 1034 134 201 267 507 330 755 181 721 17 1463 -455 2049 -219 271
-629 606 -1145 933 -234 149 -1283 790 -3056 1869 -2583 1571 -3124 1903
-3261 2000 -443 316 -758 676 -973 1114 -129 261 -201 493 -247 790 -26 172
-31 581 -10 760 125 1022 605 1906 1330 2452 734 553 1783 828 2655 697 733
-109 1413 -477 1997 -1080 468 -483 756 -1052 884 -1744 36 -195 55 -375 66
-635 6 -127 20 -293 31 -370 137 -954 761 -1748 1649 -2098 942 -371 2005
-174 2751 509 420 385 723 917 838 1469 44 213 55 338 55 610 0 346 -30 598
-120 1000 -218 969 -615 1796 -1203 2505 -124 150 -483 508 -640 639 -539 449
-1165 804 -1891 1074 -444 165 -809 254 -1240 302 -155 18 -785 30 -829 17z"/>
<path d="M5300 16730 c-600 -47 -1172 -319 -1588 -754 -334 -351 -544 -771
-634 -1273 -20 -113 -23 -160 -23 -398 0 -298 8 -359 70 -601 81 -312 229
-603 430 -843 229 -274 697 -650 1255 -1008 317 -204 1477 -914 3640 -2230
1769 -1076 2384 -1452 2515 -1538 730 -481 1153 -1115 1276 -1915 27 -174 37
-550 20 -752 -39 -461 -138 -831 -326 -1225 -257 -535 -638 -990 -1126 -1345
-843 -614 -1909 -802 -2929 -517 -1045 292 -1920 1080 -2293 2066 -146 383
-225 809 -272 1468 -29 407 -95 663 -255 990 -132 269 -282 478 -500 695 -302
303 -651 520 -1055 655 -909 304 -1904 81 -2643 -592 -309 -281 -567 -679
-700 -1079 -164 -490 -196 -1157 -86 -1794 84 -494 273 -1030 558 -1585 660
-1286 1628 -2180 2911 -2690 359 -143 733 -252 1145 -335 472 -94 740 -124
1023 -115 l199 7 -33 34 c-21 22 -81 55 -183 100 -1900 843 -3021 2203 -3405
4129 -111 555 -177 1332 -128 1514 53 197 192 342 381 396 81 24 238 16 316
-14 116 -46 219 -145 276 -266 53 -111 63 -169 84 -490 34 -503 71 -761 161
-1124 470 -1904 1987 -3471 3894 -4022 737 -214 1474 -262 2265 -148 549 78
1123 239 1605 449 1365 595 2358 1700 2920 3250 520 1435 486 2734 -105 3935
-424 862 -1068 1566 -2005 2192 -124 82 -931 587 -1575 985 -1172 724 -2351
1449 -2730 1678 -1108 670 -1698 1047 -1897 1213 -288 240 -496 584 -573 949
-112 531 32 1089 390 1513 86 101 158 170 285 271 55 43 101 84 103 89 5 15
-130 53 -232 64 -140 16 -310 20 -426 11z"/>
</g>
</svg>
